<?xml version="1.0" standalone="no"?>
<!DOCTYPE svg PUBLIC "-//W3C//DTD SVG 20010904//EN"
 "http://www.w3.org/TR/2001/REC-SVG-20010904/DTD/svg10.dtd">
<svg version="1.0" xmlns="http://www.w3.org/2000/svg"
 width="290.000000pt" height="290.000000pt" viewBox="0 0 290.000000 290.000000"
 preserveAspectRatio="xMidYMid meet">

<g transform="translate(0.000000,290.000000) scale(0.100000,-0.100000)"
fill="#000000" stroke="none">
<path d="M1285 2454 c-16 -2 -70 -9 -120 -15 -368 -44 -641 -235 -761 -531
-32 -79 -33 -81 -86 -102 -74 -30 -137 -76 -196 -141 -104 -117 -106 -158 -9
-163 l55 -3 0 -89 c0 -95 14 -155 39 -164 8 -4 35 5 59 19 51 30 49 38 29
-114 -36 -268 -74 -485 -111 -621 -14 -52 -27 -106 -27 -120 -4 -49 84 -65
181 -31 28 10 52 17 52 17 0 -1 -11 -53 -24 -116 -16 -77 -21 -119 -15 -127
12 -13 95 -33 141 -33 27 0 30 -3 24 -22 -3 -13 -9 -40 -12 -60 l-7 -38 42 0
c38 0 41 2 41 28 0 49 13 58 57 39 21 -9 49 -19 61 -22 17 -5 22 -12 19 -26
-5 -19 12 -19 740 -19 720 0 744 1 738 19 -4 15 5 21 57 39 35 11 66 18 69 16
4 -2 10 -20 13 -39 6 -32 10 -35 43 -35 l36 0 -6 44 c-4 24 -8 50 -9 57 -2 8
14 15 47 20 97 15 113 20 119 35 3 8 -4 62 -16 120 -11 57 -19 106 -16 109 2
2 26 -2 53 -10 56 -17 113 -19 149 -5 30 11 33 37 12 98 -35 98 -84 355 -121
637 -8 61 -17 127 -20 148 l-5 38 44 -26 c36 -21 49 -24 65 -16 24 14 37 77
34 178 l-2 72 56 3 c97 5 95 46 -9 163 -59 65 -122 111 -197 141 -51 21 -57
26 -72 73 -102 300 -365 497 -744 556 -95 15 -427 28 -490 19z m412 -85 c336
-37 571 -175 701 -409 16 -30 33 -65 37 -77 5 -20 3 -23 -22 -23 -38 0 -72
-25 -89 -66 -12 -28 -12 -39 1 -76 11 -33 87 -746 85 -805 0 -8 -25 1 -64 22
-57 32 -96 38 -96 15 0 -16 -81 -128 -103 -143 l-22 -14 0 517 c0 555 0 550
-50 550 -24 0 -35 -17 -35 -56 0 -24 -2 -24 -88 -24 l-88 0 -12 96 c-14 125
-45 173 -82 129 -11 -13 -11 -29 -2 -79 7 -35 12 -82 12 -105 l0 -41 -311 0
-312 0 7 78 c4 42 9 93 12 114 5 29 2 38 -14 47 -14 7 -24 7 -36 -2 -20 -15
-45 -119 -46 -189 l0 -48 -104 0 -105 0 -3 38 c-3 32 -7 37 -30 40 -23 3 -30
-2 -38 -23 -7 -18 -9 -208 -8 -536 2 -301 -1 -509 -6 -509 -16 0 -93 91 -111
131 -24 53 -45 57 -105 20 -64 -39 -72 -39 -65 2 13 77 71 700 68 727 -1 8 3
31 10 50 7 19 11 47 9 62 -4 35 -55 78 -93 78 -16 0 -29 3 -29 6 0 3 19 43 42
87 84 161 237 288 430 356 84 29 208 56 293 64 93 8 373 6 462 -4z m-1297
-644 c0 -8 16 -27 35 -42 19 -15 35 -35 35 -43 0 -25 -55 -133 -92 -179 -36
-44 -114 -111 -129 -111 -13 0 -11 89 2 151 10 47 9 54 -7 66 -10 7 -33 13
-51 13 -18 0 -33 4 -33 9 0 21 126 122 174 140 53 20 66 19 66 -4z m2233 -26
c40 -28 117 -101 117 -111 0 -4 -15 -8 -34 -8 -42 0 -70 -25 -61 -54 12 -40
18 -176 8 -176 -39 0 -151 125 -194 215 -36 75 -36 86 2 114 16 12 34 33 39
46 9 24 10 24 50 10 23 -8 56 -24 73 -36z m-583 -393 l0 -394 -67 -16 c-173
-38 -407 -51 -703 -36 -203 10 -288 19 -371 41 l-36 9 -7 215 c-4 118 -4 295
0 395 l7 180 588 0 589 0 0 -394z m-1577 102 c-45 -419 -59 -595 -51 -605 17
-22 47 -15 117 27 37 22 70 40 73 40 14 0 17 -33 4 -52 -21 -29 -10 -46 48
-75 28 -14 53 -27 55 -29 2 -2 -28 -65 -66 -141 -39 -76 -94 -191 -123 -255
-37 -83 -58 -118 -70 -118 -9 0 -19 2 -22 5 -3 3 8 71 24 151 23 114 27 148
18 160 -18 21 -45 17 -77 -10 -65 -54 -174 -89 -159 -51 37 99 146 737 146
860 0 25 11 49 38 85 20 27 40 49 43 49 4 1 5 -18 2 -41z m2065 -233 c33 -271
88 -577 128 -712 13 -45 -60 -26 -153 39 -42 30 -76 32 -86 5 -3 -8 8 -75 24
-151 16 -76 27 -142 24 -147 -22 -34 -48 10 -201 336 -12 28 -39 78 -58 112
l-36 62 60 33 c62 34 80 59 60 83 -6 8 -9 19 -5 25 4 7 33 -4 79 -30 135 -74
133 -81 96 286 -16 164 -30 307 -30 317 0 13 12 3 38 -30 38 -48 38 -48 60
-228z m-1433 -385 l90 -9 75 -78 c72 -75 74 -78 49 -81 -31 -4 -219 37 -320
69 l-67 21 5 37 c8 61 10 64 46 57 17 -3 73 -10 122 -16z m868 -22 c3 -23 4
-46 1 -50 -8 -12 -182 -65 -274 -82 -47 -9 -95 -19 -107 -22 -13 -2 -23 -1
-23 3 1 5 33 43 73 85 l72 77 105 14 c158 21 147 23 153 -25z m-373 4 c0 -4
-33 -40 -73 -80 l-73 -72 -50 52 c-27 29 -60 65 -73 81 l-24 27 146 0 c81 0
147 -3 147 -8z m-915 -543 c44 -17 84 -34 88 -39 5 -4 5 -24 1 -44 -6 -35 -8
-37 -38 -31 -17 4 -64 22 -103 40 -71 33 -73 35 -63 61 13 34 20 44 28 44 4 0
43 -14 87 -31z m1651 -1 c16 -30 15 -32 -7 -50 -26 -19 -116 -56 -161 -65 -26
-5 -28 -3 -29 26 -1 17 -2 36 -3 42 -1 10 149 76 176 78 4 1 15 -13 24 -31z"/>
<path d="M978 1539 c-16 -9 -18 -26 -18 -132 0 -126 6 -147 41 -147 40 0 49
26 49 145 0 90 -3 117 -16 129 -18 18 -32 20 -56 5z"/>
<path d="M1876 1528 c-12 -17 -16 -48 -16 -123 0 -108 13 -145 50 -145 37 0
50 37 50 147 0 90 -3 106 -20 123 -26 26 -45 25 -64 -2z"/>
<path d="M1342 1098 c-19 -19 -14 -34 18 -62 54 -45 138 -44 199 3 19 14 22
24 17 45 -7 30 -29 33 -72 11 -36 -18 -62 -18 -94 0 -31 18 -52 19 -68 3z"/>
</g>
</svg>
